<?xml version="1.0" encoding="UTF-8" standalone="no"?><svg xmlns="http://www.w3.org/2000/svg" xmlns:xlink="http://www.w3.org/1999/xlink" contentScriptType="application/ecmascript" contentStyleType="text/css" height="1134px" preserveAspectRatio="none" style="width:1180px;height:1134px;background:#FFFFFF;" version="1.1" viewBox="0 0 1180 1134" width="1180px" zoomAndPan="magnify"><defs><filter height="300%" id="f1jyj38x58gds8" width="300%" x="-1" y="-1"><feGaussianBlur result="blurOut" stdDeviation="2.0"/><feColorMatrix in="blurOut" result="blurOut2" type="matrix" values="0 0 0 0 0 0 0 0 0 0 0 0 0 0 0 0 0 0 .4 0"/><feOffset dx="4.0" dy="4.0" in="blurOut2" result="blurOut3"/><feBlend in="SourceGraphic" in2="blurOut3" mode="normal"/></filter></defs><g><text fill="#000000" font-family="sans-serif" font-size="18" lengthAdjust="spacing" textLength="472" x="350.75" y="43.3486">Decode LoRaWAN frame payload via JavaScript in V8</text><text fill="#000000" font-family="sans-serif" font-size="18" lengthAdjust="spacing" textLength="332" x="420.75" y="64.3018">Evaluating a custom decoder function</text><rect fill="#DDDDDD" height="1036.0391" style="stroke:#A80036;stroke-width:1.0;" width="833.5" x="226" y="76.5469"/><text fill="#000000" font-family="sans-serif" font-size="13" font-weight="bold" lengthAdjust="spacing" textLength="312" x="486.75" y="88.6138">Exists entirely within router's BEAM image</text><rect fill="#FA8072" filter="url(#f1jyj38x58gds8)" height="34.1328" style="stroke:#B0C4DE;stroke-width:1.0;" width="10" x="264" y="227.7031"/><rect fill="#FA8072" filter="url(#f1jyj38x58gds8)" height="713.4531" style="stroke:#B0C4DE;stroke-width:1.0;" width="10" x="368" y="261.8359"/><rect fill="#FA8072" filter="url(#f1jyj38x58gds8)" height="241.1953" style="stroke:#B0C4DE;stroke-width:1.0;" width="10" x="516" y="338.1016"/><rect fill="#FA8072" filter="url(#f1jyj38x58gds8)" height="44.2656" style="stroke:#B0C4DE;stroke-width:1.0;" width="10" x="694" y="667.6953"/><rect fill="#FA8072" filter="url(#f1jyj38x58gds8)" height="245.7617" style="stroke:#B0C4DE;stroke-width:1.0;" width="10" x="926" y="625.9961"/><rect fill="#FA8072" filter="url(#f1jyj38x58gds8)" height="29.1328" style="stroke:#B0C4DE;stroke-width:1.0;" width="10" x="1143.5" y="813.4922"/><line style="stroke:#B0C4DE;stroke-width:1.0;" x1="22" x2="22" y1="163.5703" y2="173.5703"/><line style="stroke:#B0C4DE;stroke-width:1.0;stroke-dasharray:1.0,4.0;" x1="22" x2="22" y1="173.5703" y2="201.5703"/><line style="stroke:#B0C4DE;stroke-width:1.0;" x1="22" x2="22" y1="201.5703" y2="988.2891"/><line style="stroke:#B0C4DE;stroke-width:1.0;stroke-dasharray:1.0,4.0;" x1="22" x2="22" y1="988.2891" y2="1016.2891"/><line style="stroke:#B0C4DE;stroke-width:1.0;" x1="22" x2="22" y1="1016.2891" y2="1026.2891"/><line style="stroke:#B0C4DE;stroke-width:1.0;" x1="98" x2="98" y1="163.5703" y2="173.5703"/><line style="stroke:#B0C4DE;stroke-width:1.0;stroke-dasharray:1.0,4.0;" x1="98" x2="98" y1="173.5703" y2="201.5703"/><line style="stroke:#B0C4DE;stroke-width:1.0;" x1="98" x2="98" y1="201.5703" y2="988.2891"/><line style="stroke:#B0C4DE;stroke-width:1.0;stroke-dasharray:1.0,4.0;" x1="98" x2="98" y1="988.2891" y2="1016.2891"/><line style="stroke:#B0C4DE;stroke-width:1.0;" x1="98" x2="98" y1="1016.2891" y2="1026.2891"/><line style="stroke:#B0C4DE;stroke-width:1.0;" x1="188" x2="188" y1="163.5703" y2="173.5703"/><line style="stroke:#B0C4DE;stroke-width:1.0;stroke-dasharray:1.0,4.0;" x1="188" x2="188" y1="173.5703" y2="201.5703"/><line style="stroke:#B0C4DE;stroke-width:1.0;" x1="188" x2="188" y1="201.5703" y2="988.2891"/><line style="stroke:#B0C4DE;stroke-width:1.0;stroke-dasharray:1.0,4.0;" x1="188" x2="188" y1="988.2891" y2="1016.2891"/><line style="stroke:#B0C4DE;stroke-width:1.0;" x1="188" x2="188" y1="1016.2891" y2="1026.2891"/><line style="stroke:#B0C4DE;stroke-width:1.0;" x1="269" x2="269" y1="163.5703" y2="173.5703"/><line style="stroke:#B0C4DE;stroke-width:1.0;stroke-dasharray:1.0,4.0;" x1="269" x2="269" y1="173.5703" y2="201.5703"/><line style="stroke:#B0C4DE;stroke-width:1.0;" x1="269" x2="269" y1="201.5703" y2="988.2891"/><line style="stroke:#B0C4DE;stroke-width:1.0;stroke-dasharray:1.0,4.0;" x1="269" x2="269" y1="988.2891" y2="1016.2891"/><line style="stroke:#B0C4DE;stroke-width:1.0;" x1="269" x2="269" y1="1016.2891" y2="1026.2891"/><line style="stroke:#B0C4DE;stroke-width:1.0;" x1="373" x2="373" y1="163.5703" y2="173.5703"/><line style="stroke:#B0C4DE;stroke-width:1.0;stroke-dasharray:1.0,4.0;" x1="373" x2="373" y1="173.5703" y2="201.5703"/><line style="stroke:#B0C4DE;stroke-width:1.0;" x1="373" x2="373" y1="201.5703" y2="988.2891"/><line style="stroke:#B0C4DE;stroke-width:1.0;stroke-dasharray:1.0,4.0;" x1="373" x2="373" y1="988.2891" y2="1016.2891"/><line style="stroke:#B0C4DE;stroke-width:1.0;" x1="373" x2="373" y1="1016.2891" y2="1026.2891"/><line style="stroke:#B0C4DE;stroke-width:1.0;" x1="520.5" x2="520.5" y1="163.5703" y2="173.5703"/><line style="stroke:#B0C4DE;stroke-width:1.0;stroke-dasharray:1.0,4.0;" x1="520.5" x2="520.5" y1="173.5703" y2="201.5703"/><line style="stroke:#B0C4DE;stroke-width:1.0;" x1="520.5" x2="520.5" y1="201.5703" y2="988.2891"/><line style="stroke:#B0C4DE;stroke-width:1.0;stroke-dasharray:1.0,4.0;" x1="520.5" x2="520.5" y1="988.2891" y2="1016.2891"/><line style="stroke:#B0C4DE;stroke-width:1.0;" x1="520.5" x2="520.5" y1="1016.2891" y2="1026.2891"/><line style="stroke:#B0C4DE;stroke-width:1.0;" x1="699" x2="699" y1="163.5703" y2="173.5703"/><line style="stroke:#B0C4DE;stroke-width:1.0;stroke-dasharray:1.0,4.0;" x1="699" x2="699" y1="173.5703" y2="201.5703"/><line style="stroke:#B0C4DE;stroke-width:1.0;" x1="699" x2="699" y1="201.5703" y2="988.2891"/><line style="stroke:#B0C4DE;stroke-width:1.0;stroke-dasharray:1.0,4.0;" x1="699" x2="699" y1="988.2891" y2="1016.2891"/><line style="stroke:#B0C4DE;stroke-width:1.0;" x1="699" x2="699" y1="1016.2891" y2="1026.2891"/><line style="stroke:#B0C4DE;stroke-width:1.0;" x1="761" x2="761" y1="163.5703" y2="173.5703"/><line style="stroke:#B0C4DE;stroke-width:1.0;stroke-dasharray:1.0,4.0;" x1="761" x2="761" y1="173.5703" y2="201.5703"/><line style="stroke:#B0C4DE;stroke-width:1.0;" x1="761" x2="761" y1="201.5703" y2="988.2891"/><line style="stroke:#B0C4DE;stroke-width:1.0;stroke-dasharray:1.0,4.0;" x1="761" x2="761" y1="988.2891" y2="1016.2891"/><line style="stroke:#B0C4DE;stroke-width:1.0;" x1="761" x2="761" y1="1016.2891" y2="1026.2891"/><line style="stroke:#B0C4DE;stroke-width:1.0;" x1="843" x2="843" y1="163.5703" y2="173.5703"/><line style="stroke:#B0C4DE;stroke-width:1.0;stroke-dasharray:1.0,4.0;" x1="843" x2="843" y1="173.5703" y2="201.5703"/><line style="stroke:#B0C4DE;stroke-width:1.0;" x1="843" x2="843" y1="201.5703" y2="988.2891"/><line style="stroke:#B0C4DE;stroke-width:1.0;stroke-dasharray:1.0,4.0;" x1="843" x2="843" y1="988.2891" y2="1016.2891"/><line style="stroke:#B0C4DE;stroke-width:1.0;" x1="843" x2="843" y1="1016.2891" y2="1026.2891"/><line style="stroke:#B0C4DE;stroke-width:1.0;" x1="931" x2="931" y1="163.5703" y2="173.5703"/><line style="stroke:#B0C4DE;stroke-width:1.0;stroke-dasharray:1.0,4.0;" x1="931" x2="931" y1="173.5703" y2="201.5703"/><line style="stroke:#B0C4DE;stroke-width:1.0;" x1="931" x2="931" y1="201.5703" y2="988.2891"/><line style="stroke:#B0C4DE;stroke-width:1.0;stroke-dasharray:1.0,4.0;" x1="931" x2="931" y1="988.2891" y2="1016.2891"/><line style="stroke:#B0C4DE;stroke-width:1.0;" x1="931" x2="931" y1="1016.2891" y2="1026.2891"/><line style="stroke:#B0C4DE;stroke-width:1.0;" x1="1029.5" x2="1029.5" y1="163.5703" y2="173.5703"/><line style="stroke:#B0C4DE;stroke-width:1.0;stroke-dasharray:1.0,4.0;" x1="1029.5" x2="1029.5" y1="173.5703" y2="201.5703"/><line style="stroke:#B0C4DE;stroke-width:1.0;" x1="1029.5" x2="1029.5" y1="201.5703" y2="988.2891"/><line style="stroke:#B0C4DE;stroke-width:1.0;stroke-dasharray:1.0,4.0;" x1="1029.5" x2="1029.5" y1="988.2891" y2="1016.2891"/><line style="stroke:#B0C4DE;stroke-width:1.0;" x1="1029.5" x2="1029.5" y1="1016.2891" y2="1026.2891"/><line style="stroke:#B0C4DE;stroke-width:1.0;" x1="1091.5" x2="1091.5" y1="163.5703" y2="173.5703"/><line style="stroke:#B0C4DE;stroke-width:1.0;stroke-dasharray:1.0,4.0;" x1="1091.5" x2="1091.5" y1="173.5703" y2="201.5703"/><line style="stroke:#B0C4DE;stroke-width:1.0;" x1="1091.5" x2="1091.5" y1="201.5703" y2="988.2891"/><line style="stroke:#B0C4DE;stroke-width:1.0;stroke-dasharray:1.0,4.0;" x1="1091.5" x2="1091.5" y1="988.2891" y2="1016.2891"/><line style="stroke:#B0C4DE;stroke-width:1.0;" x1="1091.5" x2="1091.5" y1="1016.2891" y2="1026.2891"/><line style="stroke:#B0C4DE;stroke-width:1.0;" x1="1148.5" x2="1148.5" y1="163.5703" y2="173.5703"/><line style="stroke:#B0C4DE;stroke-width:1.0;stroke-dasharray:1.0,4.0;" x1="1148.5" x2="1148.5" y1="173.5703" y2="201.5703"/><line style="stroke:#B0C4DE;stroke-width:1.0;" x1="1148.5" x2="1148.5" y1="201.5703" y2="988.2891"/><line style="stroke:#B0C4DE;stroke-width:1.0;stroke-dasharray:1.0,4.0;" x1="1148.5" x2="1148.5" y1="988.2891" y2="1016.2891"/><line style="stroke:#B0C4DE;stroke-width:1.0;" x1="1148.5" x2="1148.5" y1="1016.2891" y2="1026.2891"/><text fill="#000000" font-family="sans-serif" font-size="14" lengthAdjust="spacing" textLength="29" x="5" y="160.2686">APIs</text><ellipse cx="22.5" cy="90.2734" fill="#FEFECE" filter="url(#f1jyj38x58gds8)" rx="8" ry="8" style="stroke:#A80036;stroke-width:2.0;"/><path d="M22.5,98.2734 L22.5,125.2734 M9.5,106.2734 L35.5,106.2734 M22.5,125.2734 L9.5,140.2734 M22.5,125.2734 L35.5,140.2734 " fill="none" filter="url(#f1jyj38x58gds8)" style="stroke:#A80036;stroke-width:2.0;"/><text fill="#000000" font-family="sans-serif" font-size="14" lengthAdjust="spacing" textLength="29" x="5" y="1038.2842">APIs</text><ellipse cx="22.5" cy="1051.5859" fill="#FEFECE" filter="url(#f1jyj38x58gds8)" rx="8" ry="8" style="stroke:#A80036;stroke-width:2.0;"/><path d="M22.5,1059.5859 L22.5,1086.5859 M9.5,1067.5859 L35.5,1067.5859 M22.5,1086.5859 L9.5,1101.5859 M22.5,1086.5859 L35.5,1101.5859 " fill="none" filter="url(#f1jyj38x58gds8)" style="stroke:#A80036;stroke-width:2.0;"/><rect fill="#FEFECE" filter="url(#f1jyj38x58gds8)" height="46.5938" style="stroke:#A80036;stroke-width:1.5;" width="89" x="54" y="107.9766"/><rect fill="#FEFECE" filter="url(#f1jyj38x58gds8)" height="46.5938" style="stroke:#A80036;stroke-width:1.5;" width="89" x="50" y="111.9766"/><text fill="#000000" font-family="sans-serif" font-size="14" lengthAdjust="spacing" textLength="75" x="57" y="131.9717">Blockchain</text><text fill="#000000" font-family="sans-serif" font-size="14" lengthAdjust="spacing" textLength="33" x="78" y="148.2686">Core</text><rect fill="#FEFECE" filter="url(#f1jyj38x58gds8)" height="46.5938" style="stroke:#A80036;stroke-width:1.5;" width="89" x="54" y="1025.2891"/><rect fill="#FEFECE" filter="url(#f1jyj38x58gds8)" height="46.5938" style="stroke:#A80036;stroke-width:1.5;" width="89" x="50" y="1029.2891"/><text fill="#000000" font-family="sans-serif" font-size="14" lengthAdjust="spacing" textLength="75" x="57" y="1049.2842">Blockchain</text><text fill="#000000" font-family="sans-serif" font-size="14" lengthAdjust="spacing" textLength="33" x="78" y="1065.5811">Core</text><text fill="#000000" font-family="sans-serif" font-size="14" lengthAdjust="spacing" textLength="36" x="167.5" y="143.9717">State</text><text fill="#000000" font-family="sans-serif" font-size="14" lengthAdjust="spacing" textLength="57" x="157" y="160.2686">Channel</text><ellipse cx="188.5" cy="114.9766" fill="#FEFECE" filter="url(#f1jyj38x58gds8)" rx="12" ry="12" style="stroke:#A80036;stroke-width:2.0;"/><line style="stroke:#A80036;stroke-width:2.0;" x1="176.5" x2="200.5" y1="128.9766" y2="128.9766"/><text fill="#000000" font-family="sans-serif" font-size="14" lengthAdjust="spacing" textLength="36" x="167.5" y="1038.2842">State</text><text fill="#000000" font-family="sans-serif" font-size="14" lengthAdjust="spacing" textLength="57" x="157" y="1054.5811">Channel</text><ellipse cx="188.5" cy="1073.8828" fill="#FEFECE" filter="url(#f1jyj38x58gds8)" rx="12" ry="12" style="stroke:#A80036;stroke-width:2.0;"/><line style="stroke:#A80036;stroke-width:2.0;" x1="176.5" x2="200.5" y1="1087.8828" y2="1087.8828"/><rect fill="#FEFECE" filter="url(#f1jyj38x58gds8)" height="62.8906" style="stroke:#A80036;stroke-width:1.5;" width="74" x="230" y="95.6797"/><text fill="#000000" font-family="sans-serif" font-size="14" lengthAdjust="spacing" textLength="55" x="239.5" y="115.6748">Listener</text><text fill="#000000" font-family="sans-serif" font-size="14" lengthAdjust="spacing" textLength="60" x="237" y="131.9717">for gRPC</text><text fill="#000000" font-family="sans-serif" font-size="14" lengthAdjust="spacing" textLength="49" x="242.5" y="148.2686">(ranch)</text><rect fill="#FEFECE" filter="url(#f1jyj38x58gds8)" height="62.8906" style="stroke:#A80036;stroke-width:1.5;" width="74" x="230" y="1025.2891"/><text fill="#000000" font-family="sans-serif" font-size="14" lengthAdjust="spacing" textLength="55" x="239.5" y="1045.2842">Listener</text><text fill="#000000" font-family="sans-serif" font-size="14" lengthAdjust="spacing" textLength="60" x="237" y="1061.5811">for gRPC</text><text fill="#000000" font-family="sans-serif" font-size="14" lengthAdjust="spacing" textLength="49" x="242.5" y="1077.8779">(ranch)</text><rect fill="#FEFECE" filter="url(#f1jyj38x58gds8)" height="46.5938" style="stroke:#A80036;stroke-width:1.5;" width="106" x="318" y="111.9766"/><text fill="#000000" font-family="sans-serif" font-size="14" lengthAdjust="spacing" textLength="65" x="338.5" y="131.9717">Channels</text><text fill="#000000" font-family="sans-serif" font-size="14" lengthAdjust="spacing" textLength="92" x="325" y="148.2686">(Integrations)</text><rect fill="#FEFECE" filter="url(#f1jyj38x58gds8)" height="46.5938" style="stroke:#A80036;stroke-width:1.5;" width="106" x="318" y="1025.2891"/><text fill="#000000" font-family="sans-serif" font-size="14" lengthAdjust="spacing" textLength="65" x="338.5" y="1045.2842">Channels</text><text fill="#000000" font-family="sans-serif" font-size="14" lengthAdjust="spacing" textLength="92" x="325" y="1061.5811">(Integrations)</text><rect fill="#FEFECE" filter="url(#f1jyj38x58gds8)" height="30.2969" style="stroke:#A80036;stroke-width:1.5;" width="61" x="488.5" y="128.2734"/><text fill="#000000" font-family="sans-serif" font-size="14" lengthAdjust="spacing" textLength="47" x="495.5" y="148.2686">Device</text><rect fill="#FEFECE" filter="url(#f1jyj38x58gds8)" height="30.2969" style="stroke:#A80036;stroke-width:1.5;" width="61" x="488.5" y="1025.2891"/><text fill="#000000" font-family="sans-serif" font-size="14" lengthAdjust="spacing" textLength="47" x="495.5" y="1045.2842">Device</text><text fill="#000000" font-family="sans-serif" font-size="14" lengthAdjust="spacing" textLength="27" x="682.5" y="160.2686">ETS</text><path d="M681,111.2734 C681,101.2734 699,101.2734 699,101.2734 C699,101.2734 717,101.2734 717,111.2734 L717,137.2734 C717,147.2734 699,147.2734 699,147.2734 C699,147.2734 681,147.2734 681,137.2734 L681,111.2734 " fill="#FEFECE" filter="url(#f1jyj38x58gds8)" style="stroke:#000000;stroke-width:1.5;"/><path d="M681,111.2734 C681,121.2734 699,121.2734 699,121.2734 C699,121.2734 717,121.2734 717,111.2734 " fill="none" style="stroke:#000000;stroke-width:1.5;"/><text fill="#000000" font-family="sans-serif" font-size="14" lengthAdjust="spacing" textLength="27" x="682.5" y="1038.2842">ETS</text><path d="M681,1051.5859 C681,1041.5859 699,1041.5859 699,1041.5859 C699,1041.5859 717,1041.5859 717,1051.5859 L717,1077.5859 C717,1087.5859 699,1087.5859 699,1087.5859 C699,1087.5859 681,1087.5859 681,1077.5859 L681,1051.5859 " fill="#FEFECE" filter="url(#f1jyj38x58gds8)" style="stroke:#000000;stroke-width:1.5;"/><path d="M681,1051.5859 C681,1061.5859 699,1061.5859 699,1061.5859 C699,1061.5859 717,1061.5859 717,1051.5859 " fill="none" style="stroke:#000000;stroke-width:1.5;"/><rect fill="#FEFECE" filter="url(#f1jyj38x58gds8)" height="30.2969" style="stroke:#A80036;stroke-width:1.5;" width="64" x="727" y="128.2734"/><text fill="#000000" font-family="sans-serif" font-size="14" lengthAdjust="spacing" textLength="50" x="734" y="148.2686">Metrics</text><rect fill="#FEFECE" filter="url(#f1jyj38x58gds8)" height="30.2969" style="stroke:#A80036;stroke-width:1.5;" width="64" x="727" y="1025.2891"/><text fill="#000000" font-family="sans-serif" font-size="14" lengthAdjust="spacing" textLength="50" x="734" y="1045.2842">Metrics</text><rect fill="#FEFECE" filter="url(#f1jyj38x58gds8)" height="30.2969" style="stroke:#A80036;stroke-width:1.5;" width="73" x="805" y="128.2734"/><text fill="#000000" font-family="sans-serif" font-size="14" lengthAdjust="spacing" textLength="59" x="812" y="148.2686">DevAddr</text><rect fill="#FEFECE" filter="url(#f1jyj38x58gds8)" height="30.2969" style="stroke:#A80036;stroke-width:1.5;" width="73" x="805" y="1025.2891"/><text fill="#000000" font-family="sans-serif" font-size="14" lengthAdjust="spacing" textLength="59" x="812" y="1045.2842">DevAddr</text><rect fill="#FEFECE" filter="url(#f1jyj38x58gds8)" height="30.2969" style="stroke:#A80036;stroke-width:1.5;" width="74" x="892" y="128.2734"/><text fill="#000000" font-family="sans-serif" font-size="14" lengthAdjust="spacing" textLength="60" x="899" y="148.2686">Decoder</text><rect fill="#FEFECE" filter="url(#f1jyj38x58gds8)" height="30.2969" style="stroke:#A80036;stroke-width:1.5;" width="74" x="892" y="1025.2891"/><text fill="#000000" font-family="sans-serif" font-size="14" lengthAdjust="spacing" textLength="60" x="899" y="1045.2842">Decoder</text><rect fill="#FEFECE" filter="url(#f1jyj38x58gds8)" height="46.5938" style="stroke:#A80036;stroke-width:1.5;" width="47" x="1004.5" y="111.9766"/><text fill="#000000" font-family="sans-serif" font-size="14" lengthAdjust="spacing" textLength="30" x="1013" y="131.9717">XOR</text><text fill="#000000" font-family="sans-serif" font-size="14" lengthAdjust="spacing" textLength="33" x="1011.5" y="148.2686">Filter</text><rect fill="#FEFECE" filter="url(#f1jyj38x58gds8)" height="46.5938" style="stroke:#A80036;stroke-width:1.5;" width="47" x="1004.5" y="1025.2891"/><text fill="#000000" font-family="sans-serif" font-size="14" lengthAdjust="spacing" textLength="30" x="1013" y="1045.2842">XOR</text><text fill="#000000" font-family="sans-serif" font-size="14" lengthAdjust="spacing" textLength="33" x="1011.5" y="1061.5811">Filter</text><text fill="#000000" font-family="sans-serif" font-size="14" lengthAdjust="spacing" textLength="47" x="1065.5" y="143.9717">Router</text><text fill="#000000" font-family="sans-serif" font-size="14" lengthAdjust="spacing" textLength="21" x="1078.5" y="160.2686">DB</text><path d="M1074,94.9766 C1074,84.9766 1092,84.9766 1092,84.9766 C1092,84.9766 1110,84.9766 1110,94.9766 L1110,120.9766 C1110,130.9766 1092,130.9766 1092,130.9766 C1092,130.9766 1074,130.9766 1074,120.9766 L1074,94.9766 " fill="#FEFECE" filter="url(#f1jyj38x58gds8)" style="stroke:#000000;stroke-width:1.5;"/><path d="M1074,94.9766 C1074,104.9766 1092,104.9766 1092,104.9766 C1092,104.9766 1110,104.9766 1110,94.9766 " fill="none" style="stroke:#000000;stroke-width:1.5;"/><text fill="#000000" font-family="sans-serif" font-size="14" lengthAdjust="spacing" textLength="47" x="1065.5" y="1038.2842">Router</text><text fill="#000000" font-family="sans-serif" font-size="14" lengthAdjust="spacing" textLength="21" x="1078.5" y="1054.5811">DB</text><path d="M1074,1067.8828 C1074,1057.8828 1092,1057.8828 1092,1057.8828 C1092,1057.8828 1110,1057.8828 1110,1067.8828 L1110,1093.8828 C1110,1103.8828 1092,1103.8828 1092,1103.8828 C1092,1103.8828 1074,1103.8828 1074,1093.8828 L1074,1067.8828 " fill="#FEFECE" filter="url(#f1jyj38x58gds8)" style="stroke:#000000;stroke-width:1.5;"/><path d="M1074,1067.8828 C1074,1077.8828 1092,1077.8828 1092,1077.8828 C1092,1077.8828 1110,1077.8828 1110,1067.8828 " fill="none" style="stroke:#000000;stroke-width:1.5;"/><rect fill="#FEFECE" filter="url(#f1jyj38x58gds8)" height="46.5938" style="stroke:#A80036;stroke-width:1.5;" width="36" x="1128.5" y="111.9766"/><text fill="#000000" font-family="sans-serif" font-size="14" lengthAdjust="spacing" textLength="18" x="1137.5" y="131.9717">V8</text><text fill="#000000" font-family="sans-serif" font-size="14" lengthAdjust="spacing" textLength="22" x="1135.5" y="148.2686">(JS)</text><rect fill="#FEFECE" filter="url(#f1jyj38x58gds8)" height="46.5938" style="stroke:#A80036;stroke-width:1.5;" width="36" x="1128.5" y="1025.2891"/><text fill="#000000" font-family="sans-serif" font-size="14" lengthAdjust="spacing" textLength="18" x="1137.5" y="1045.2842">V8</text><text fill="#000000" font-family="sans-serif" font-size="14" lengthAdjust="spacing" textLength="22" x="1135.5" y="1061.5811">(JS)</text><rect fill="#FA8072" filter="url(#f1jyj38x58gds8)" height="34.1328" style="stroke:#B0C4DE;stroke-width:1.0;" width="10" x="264" y="227.7031"/><rect fill="#FA8072" filter="url(#f1jyj38x58gds8)" height="713.4531" style="stroke:#B0C4DE;stroke-width:1.0;" width="10" x="368" y="261.8359"/><rect fill="#FA8072" filter="url(#f1jyj38x58gds8)" height="241.1953" style="stroke:#B0C4DE;stroke-width:1.0;" width="10" x="516" y="338.1016"/><rect fill="#FA8072" filter="url(#f1jyj38x58gds8)" height="44.2656" style="stroke:#B0C4DE;stroke-width:1.0;" width="10" x="694" y="667.6953"/><rect fill="#FA8072" filter="url(#f1jyj38x58gds8)" height="245.7617" style="stroke:#B0C4DE;stroke-width:1.0;" width="10" x="926" y="625.9961"/><rect fill="#FA8072" filter="url(#f1jyj38x58gds8)" height="29.1328" style="stroke:#B0C4DE;stroke-width:1.0;" width="10" x="1143.5" y="813.4922"/><polygon fill="#A80036" points="252,223.7031,262,227.7031,252,231.7031,256,227.7031" style="stroke:#A80036;stroke-width:1.0;"/><line style="stroke:#A80036;stroke-width:1.0;" x1="0" x2="258" y1="227.7031" y2="227.7031"/><text fill="#000000" font-family="sans-serif" font-size="13" lengthAdjust="spacing" textLength="109" x="7" y="222.6372">Encoded payload</text><path d="M279,206.5703 L279,231.5703 L459,231.5703 L459,216.5703 L449,206.5703 L279,206.5703 " fill="#FBFB77" filter="url(#f1jyj38x58gds8)" style="stroke:#A80036;stroke-width:1.0;"/><path d="M449,206.5703 L449,216.5703 L459,216.5703 L449,206.5703 " fill="#FBFB77" style="stroke:#A80036;stroke-width:1.0;"/><text fill="#000000" font-family="sans-serif" font-size="13" lengthAdjust="spacing" textLength="159" x="285" y="223.6372">gRPC service via grpcbox</text><polygon fill="#A80036" points="356,257.8359,366,261.8359,356,265.8359,360,261.8359" style="stroke:#A80036;stroke-width:1.0;"/><line style="stroke:#A80036;stroke-width:1.0;" x1="269" x2="362" y1="261.8359" y2="261.8359"/><text fill="#000000" font-family="sans-serif" font-size="13" lengthAdjust="spacing" textLength="67" x="276" y="256.77">gen_event</text><line style="stroke:#A80036;stroke-width:1.0;" x1="378" x2="420" y1="290.9688" y2="290.9688"/><line style="stroke:#A80036;stroke-width:1.0;" x1="420" x2="420" y1="290.9688" y2="303.9688"/><line style="stroke:#A80036;stroke-width:1.0;" x1="379" x2="420" y1="303.9688" y2="303.9688"/><polygon fill="#A80036" points="389,299.9688,379,303.9688,389,307.9688,385,303.9688" style="stroke:#A80036;stroke-width:1.0;"/><text fill="#000000" font-family="sans-serif" font-size="13" lengthAdjust="spacing" textLength="109" x="385" y="285.9028">add_sup_handler</text><path d="M130,276.3359 L130,301.3359 L359,301.3359 L359,286.3359 L349,276.3359 L130,276.3359 " fill="#FBFB77" filter="url(#f1jyj38x58gds8)" style="stroke:#A80036;stroke-width:1.0;"/><path d="M349,276.3359 L349,286.3359 L359,286.3359 L349,276.3359 " fill="#FBFB77" style="stroke:#A80036;stroke-width:1.0;"/><text fill="#000000" font-family="sans-serif" font-size="13" lengthAdjust="spacing" textLength="208" x="136" y="293.4028">./src/channels/router_channel.erl</text><polygon fill="#A80036" points="504,334.1016,514,338.1016,504,342.1016,508,338.1016" style="stroke:#A80036;stroke-width:1.0;"/><line style="stroke:#A80036;stroke-width:1.0;" x1="378" x2="510" y1="338.1016" y2="338.1016"/><text fill="#000000" font-family="sans-serif" font-size="13" lengthAdjust="spacing" textLength="71" x="385" y="333.0356">gen_server</text><path d="M42,316.9688 L42,341.9688 L359,341.9688 L359,326.9688 L349,316.9688 L42,316.9688 " fill="#FBFB77" filter="url(#f1jyj38x58gds8)" style="stroke:#A80036;stroke-width:1.0;"/><path d="M349,316.9688 L349,326.9688 L359,326.9688 L349,316.9688 " fill="#FBFB77" style="stroke:#A80036;stroke-width:1.0;"/><text fill="#000000" font-family="sans-serif" font-size="13" lengthAdjust="spacing" textLength="296" x="48" y="334.0356">./src/device/router_device_channels_worker.erl</text><line style="stroke:#A80036;stroke-width:1.0;" x1="526" x2="568" y1="402.5" y2="402.5"/><line style="stroke:#A80036;stroke-width:1.0;" x1="568" x2="568" y1="402.5" y2="415.5"/><line style="stroke:#A80036;stroke-width:1.0;" x1="527" x2="568" y1="415.5" y2="415.5"/><polygon fill="#A80036" points="537,411.5,527,415.5,537,419.5,533,415.5" style="stroke:#A80036;stroke-width:1.0;"/><text fill="#000000" font-family="sans-serif" font-size="13" lengthAdjust="spacing" textLength="81" x="533" y="367.1685">handle_cast:</text><text fill="#000000" font-family="sans-serif" font-size="13" lengthAdjust="spacing" textLength="89" x="533" y="382.3013">handle_join or</text><text fill="#000000" font-family="sans-serif" font-size="13" lengthAdjust="spacing" textLength="88" x="533" y="397.4341">handle_frame</text><path d="M634,372.7344 L634,397.7344 L751,397.7344 L751,382.7344 L741,372.7344 L634,372.7344 " fill="#FBFB77" filter="url(#f1jyj38x58gds8)" style="stroke:#A80036;stroke-width:1.0;"/><path d="M741,372.7344 L741,382.7344 L751,382.7344 L741,372.7344 " fill="#FBFB77" style="stroke:#A80036;stroke-width:1.0;"/><text fill="#000000" font-family="sans-serif" font-size="13" lengthAdjust="spacing" textLength="96" x="640" y="389.8013">Cache by UUID</text><line style="stroke:#A80036;stroke-width:1.0;" x1="526" x2="568" y1="459.7656" y2="459.7656"/><line style="stroke:#A80036;stroke-width:1.0;" x1="568" x2="568" y1="459.7656" y2="472.7656"/><line style="stroke:#A80036;stroke-width:1.0;" x1="527" x2="568" y1="472.7656" y2="472.7656"/><polygon fill="#A80036" points="537,468.7656,527,472.7656,537,476.7656,533,472.7656" style="stroke:#A80036;stroke-width:1.0;"/><text fill="#000000" font-family="sans-serif" font-size="13" lengthAdjust="spacing" textLength="81" x="533" y="439.5669">handle_cast:</text><text fill="#000000" font-family="sans-serif" font-size="13" lengthAdjust="spacing" textLength="95" x="533" y="454.6997">frame_timeout</text><line style="stroke:#A80036;stroke-width:1.0;" x1="526" x2="568" y1="532.1641" y2="532.1641"/><line style="stroke:#A80036;stroke-width:1.0;" x1="568" x2="568" y1="532.1641" y2="545.1641"/><line style="stroke:#A80036;stroke-width:1.0;" x1="527" x2="568" y1="545.1641" y2="545.1641"/><polygon fill="#A80036" points="537,541.1641,527,545.1641,537,549.1641,533,545.1641" style="stroke:#A80036;stroke-width:1.0;"/><text fill="#000000" font-family="sans-serif" font-size="13" lengthAdjust="spacing" textLength="147" x="533" y="496.8325">send_join_to_channel()</text><text fill="#000000" font-family="sans-serif" font-size="13" lengthAdjust="spacing" textLength="13" x="537" y="511.9653">or</text><text fill="#000000" font-family="sans-serif" font-size="13" lengthAdjust="spacing" textLength="154" x="533" y="527.0981">send_data_to_channel()</text><polygon fill="#A80036" points="389,575.2969,379,579.2969,389,583.2969,385,579.2969" style="stroke:#A80036;stroke-width:1.0;"/><line style="stroke:#A80036;stroke-width:1.0;" x1="383" x2="520" y1="579.2969" y2="579.2969"/><text fill="#000000" font-family="sans-serif" font-size="13" lengthAdjust="spacing" textLength="114" x="400" y="574.231">encode_payload()</text><path d="M531,558.1641 L531,583.1641 L935,583.1641 L935,568.1641 L925,558.1641 L531,558.1641 " fill="#FBFB77" filter="url(#f1jyj38x58gds8)" style="stroke:#A80036;stroke-width:1.0;"/><path d="M925,558.1641 L925,568.1641 L935,568.1641 L925,558.1641 " fill="#FBFB77" style="stroke:#A80036;stroke-width:1.0;"/><text fill="#000000" font-family="sans-serif" font-size="13" lengthAdjust="spacing" textLength="383" x="537" y="575.231">Yes, it is called "encode_payload" despite imitating "decode"</text><polygon fill="#A80036" points="914,621.9961,924,625.9961,914,629.9961,918,625.9961" style="stroke:#A80036;stroke-width:1.0;"/><line style="stroke:#A80036;stroke-width:1.0;" x1="378" x2="920" y1="625.9961" y2="625.9961"/><text fill="#000000" font-family="sans-serif" font-size="13" lengthAdjust="spacing" textLength="57" x="385" y="620.9302">decode()</text><path d="M41,597.2969 L41,637.2969 L359,637.2969 L359,607.2969 L349,597.2969 L41,597.2969 " fill="#FBFB77" filter="url(#f1jyj38x58gds8)" style="stroke:#A80036;stroke-width:1.0;"/><path d="M349,597.2969 L349,607.2969 L359,607.2969 L349,597.2969 " fill="#FBFB77" style="stroke:#A80036;stroke-width:1.0;"/><text fill="#000000" font-family="sans-serif" font-size="13" lengthAdjust="spacing" textLength="212" x="47" y="614.3638">./src/decoders/router_decoder.erl</text><text fill="#000000" font-family="sans-serif" font-size="13" lengthAdjust="spacing" textLength="297" x="47" y="629.4966">./src/decoders/router_decoder_custom_sup.erl</text><polygon fill="#A80036" points="715,663.6953,705,667.6953,715,671.6953,711,667.6953" style="stroke:#A80036;stroke-width:1.0;"/><line style="stroke:#A80036;stroke-width:1.0;" x1="709" x2="925" y1="667.6953" y2="667.6953"/><text fill="#000000" font-family="sans-serif" font-size="13" lengthAdjust="spacing" textLength="52" x="867" y="662.6294">lookup()</text><polygon fill="#A80036" points="914,707.9609,924,711.9609,914,715.9609,918,711.9609" style="stroke:#A80036;stroke-width:1.0;"/><line style="stroke:#A80036;stroke-width:1.0;" x1="699" x2="920" y1="711.9609" y2="711.9609"/><text fill="#000000" font-family="sans-serif" font-size="13" lengthAdjust="spacing" textLength="107" x="706" y="691.7622">custom_decoder</text><text fill="#000000" font-family="sans-serif" font-size="13" lengthAdjust="spacing" textLength="180" x="710" y="706.895">JavaScript function definition</text><line style="stroke:#A80036;stroke-width:1.0;" x1="936" x2="978" y1="771.3594" y2="771.3594"/><line style="stroke:#A80036;stroke-width:1.0;" x1="978" x2="978" y1="771.3594" y2="784.3594"/><line style="stroke:#A80036;stroke-width:1.0;" x1="937" x2="978" y1="784.3594" y2="784.3594"/><polygon fill="#A80036" points="947,780.3594,937,784.3594,947,788.3594,943,784.3594" style="stroke:#A80036;stroke-width:1.0;"/><text fill="#000000" font-family="sans-serif" font-size="13" lengthAdjust="spacing" textLength="71" x="943" y="736.0278">gen_server</text><text fill="#000000" font-family="sans-serif" font-size="13" lengthAdjust="spacing" textLength="75" x="943" y="751.1606">handle_call:</text><text fill="#000000" font-family="sans-serif" font-size="13" lengthAdjust="spacing" textLength="47" x="943" y="766.2935">decode</text><path d="M580,741.5938 L580,766.5938 L917,766.5938 L917,751.5938 L907,741.5938 L580,741.5938 " fill="#FBFB77" filter="url(#f1jyj38x58gds8)" style="stroke:#A80036;stroke-width:1.0;"/><path d="M907,741.5938 L907,751.5938 L917,751.5938 L907,741.5938 " fill="#FBFB77" style="stroke:#A80036;stroke-width:1.0;"/><text fill="#000000" font-family="sans-serif" font-size="13" lengthAdjust="spacing" textLength="316" x="586" y="758.6606">./src/decoders/router_decoder_custom_worker.erl</text><polygon fill="#A80036" points="1131.5,809.4922,1141.5,813.4922,1131.5,817.4922,1135.5,813.4922" style="stroke:#A80036;stroke-width:1.0;"/><line style="stroke:#A80036;stroke-width:1.0;" x1="936" x2="1137.5" y1="813.4922" y2="813.4922"/><text fill="#000000" font-family="sans-serif" font-size="13" lengthAdjust="spacing" textLength="97" x="943" y="808.4263">erlang_v8:call()</text><polygon fill="#A80036" points="947,838.625,937,842.625,947,846.625,943,842.625" style="stroke:#A80036;stroke-width:1.0;"/><line style="stroke:#A80036;stroke-width:1.0;" x1="941" x2="1147.5" y1="842.625" y2="842.625"/><text fill="#000000" font-family="sans-serif" font-size="13" lengthAdjust="spacing" textLength="57" x="1084.5" y="837.5591">Decoded</text><polygon fill="#A80036" points="389,867.7578,379,871.7578,389,875.7578,385,871.7578" style="stroke:#A80036;stroke-width:1.0;"/><line style="stroke:#A80036;stroke-width:1.0;" x1="383" x2="930" y1="871.7578" y2="871.7578"/><text fill="#000000" font-family="sans-serif" font-size="13" lengthAdjust="spacing" textLength="57" x="867" y="866.6919">Decoded</text><polygon fill="#A80036" points="11,917.0234,1,921.0234,11,925.0234,7,921.0234" style="stroke:#A80036;stroke-width:1.0;"/><line style="stroke:#A80036;stroke-width:1.0;" x1="5" x2="367" y1="921.0234" y2="921.0234"/><text fill="#000000" font-family="sans-serif" font-size="13" lengthAdjust="spacing" textLength="106" x="255" y="915.9575">gen_event notify</text><path d="M383,884.7578 L383,939.7578 L809,939.7578 L809,894.7578 L799,884.7578 L383,884.7578 " fill="#FBFB77" filter="url(#f1jyj38x58gds8)" style="stroke:#A80036;stroke-width:1.0;"/><path d="M799,884.7578 L799,894.7578 L809,894.7578 L799,884.7578 " fill="#FBFB77" style="stroke:#A80036;stroke-width:1.0;"/><text fill="#000000" font-family="sans-serif" font-size="13" lengthAdjust="spacing" textLength="208" x="389" y="901.8247">./src/channels/router_channel.erl</text><text fill="#000000" font-family="sans-serif" font-size="13" lengthAdjust="spacing" textLength="405" x="389" y="916.9575">Deliver decoded payload to channel subscribers ("integrations")</text><text fill="#000000" font-family="sans-serif" font-size="13" lengthAdjust="spacing" textLength="273" x="389" y="932.0903">e.g., ./src/channels/router_http_channel.erl</text><ellipse cx="22" cy="974.5391" rx="4" ry="4" style="stroke:#A80036;stroke-width:1.5;fill:none;"/><polygon fill="#A80036" points="39,971.2891,29,975.2891,39,979.2891,35,975.2891" style="stroke:#A80036;stroke-width:1.0;"/><line style="stroke:#A80036;stroke-width:1.0;" x1="37" x2="372" y1="975.2891" y2="975.2891"/><text fill="#000000" font-family="sans-serif" font-size="13" lengthAdjust="spacing" textLength="57" x="309" y="970.2231">Decoded</text><path d="M383,954.1563 L383,979.1563 L668,979.1563 L668,964.1563 L658,954.1563 L383,954.1563 " fill="#FBFB77" filter="url(#f1jyj38x58gds8)" style="stroke:#A80036;stroke-width:1.0;"/><path d="M658,954.1563 L658,964.1563 L668,964.1563 L658,954.1563 " fill="#FBFB77" style="stroke:#A80036;stroke-width:1.0;"/><text fill="#000000" font-family="sans-serif" font-size="13" lengthAdjust="spacing" textLength="264" x="389" y="971.2231">./src/channels/router_console_channel.erl</text><text fill="#888888" font-family="sans-serif" font-size="10" lengthAdjust="spacing" textLength="254" x="919.5" y="14.2822">Router dispatching Decoder via V8 JavaScript engine</text><text fill="#888888" font-family="sans-serif" font-size="10" lengthAdjust="spacing" textLength="56" x="558.75" y="1125.8682">Page 1 of 1</text><!--MD5=[7dec80130dae394e3cffa74aeb43cfae]
@startuml

header Router dispatching Decoder via V8 JavaScript engine
footer Page %page% of %lastpage%

' Preserve same sequence across all diagrams:
' (intentionally omitted: Lager)
actor        APIs                           as api      order 1
collections  "Blockchain\nCore"             as core     order 10
entity       "State\nChannel"               as sc       order 20
box "Exists entirely within router's BEAM image"
participant  "Listener\nfor gRPC\n(ranch)"  as listener order 30
'control      "Router\ninit/1"               as init     order 40
participant  "Channels\n(Integrations)"     as channels order 50
participant  Device                         as device   order 60
database     ETS                            as ets      order 61
participant  Metrics                        as metrics  order 70
participant  DevAddr                        as devaddr  order 80
participant  Decoder                        as decoder  order 90
participant  "XOR\nFilter"                  as xor      order 99
end box
database     "Router\nDB"                   as db       order 100
participant  "V8\n(JS)"                     as v8       order 200

title
        Decode LoRaWAN frame payload via JavaScript in V8
        Evaluating a custom decoder function
end title

skinparam sequence {
        LifeLineBorderColor #LightSteelBlue
        LifeLineBackgroundColor #Salmon
        MessageAlign direction
}

...

[-> listener ++: Encoded payload
note right: gRPC service via grpcbox
listener -> channels - -++ : gen_event
channels -> channels : add_sup_handler
note left: ./src/channels/router_channel.erl

channels -> device ++ : gen_server
note left: ./src/device/router_device_channels_worker.erl

device -> device : handle_cast:\nhandle_join or\nhandle_frame
note right: Cache by UUID

device -> device : handle_cast:\nframe_timeout
device -> device : send_join_to_channel()\n or\nsend_data_to_channel()
channels <- device - - : encode_payload()
note right: Yes, it is called "encode_payload" despite imitating "decode"

channels -> decoder ++ : decode()
note left
        ./src/decoders/router_decoder.erl
        ./src/decoders/router_decoder_custom_sup.erl
end note
decoder -> ets ++ : lookup()
decoder <- ets - - : custom_decoder\n JavaScript function definition
decoder -> decoder : gen_server\nhandle_call:\ndecode
note left: ./src/decoders/router_decoder_custom_worker.erl
decoder -> v8 ++ : erlang_v8:call()
decoder <- v8 - - : Decoded
channels <- decoder - - : Decoded

[<- channels : gen_event notify
note right
        ./src/channels/router_channel.erl
        Deliver decoded payload to channel subscribers ("integrations")
        e.g., ./src/channels/router_http_channel.erl
end note

channels ->o api - - : Decoded
note right: ./src/channels/router_console_channel.erl

...

@enduml

@startuml

header Router dispatching Decoder via V8 JavaScript engine
footer Page %page% of %lastpage%

actor        APIs                           as api      order 1
collections  "Blockchain\nCore"             as core     order 10
entity       "State\nChannel"               as sc       order 20
box "Exists entirely within router's BEAM image"
participant  "Listener\nfor gRPC\n(ranch)"  as listener order 30
participant  "Channels\n(Integrations)"     as channels order 50
participant  Device                         as device   order 60
database     ETS                            as ets      order 61
participant  Metrics                        as metrics  order 70
participant  DevAddr                        as devaddr  order 80
participant  Decoder                        as decoder  order 90
participant  "XOR\nFilter"                  as xor      order 99
end box
database     "Router\nDB"                   as db       order 100
participant  "V8\n(JS)"                     as v8       order 200

title
        Decode LoRaWAN frame payload via JavaScript in V8
        Evaluating a custom decoder function
end title

skinparam sequence {
        LifeLineBorderColor #LightSteelBlue
        LifeLineBackgroundColor #Salmon
        MessageAlign direction
}

...

[-> listener ++: Encoded payload
note right: gRPC service via grpcbox
listener -> channels - -++ : gen_event
channels -> channels : add_sup_handler
note left: ./src/channels/router_channel.erl

channels -> device ++ : gen_server
note left: ./src/device/router_device_channels_worker.erl

device -> device : handle_cast:\nhandle_join or\nhandle_frame
note right: Cache by UUID

device -> device : handle_cast:\nframe_timeout
device -> device : send_join_to_channel()\n or\nsend_data_to_channel()
channels <- device - - : encode_payload()
note right: Yes, it is called "encode_payload" despite imitating "decode"

channels -> decoder ++ : decode()
note left
        ./src/decoders/router_decoder.erl
        ./src/decoders/router_decoder_custom_sup.erl
end note
decoder -> ets ++ : lookup()
decoder <- ets - - : custom_decoder\n JavaScript function definition
decoder -> decoder : gen_server\nhandle_call:\ndecode
note left: ./src/decoders/router_decoder_custom_worker.erl
decoder -> v8 ++ : erlang_v8:call()
decoder <- v8 - - : Decoded
channels <- decoder - - : Decoded

[<- channels : gen_event notify
note right
        ./src/channels/router_channel.erl
        Deliver decoded payload to channel subscribers ("integrations")
        e.g., ./src/channels/router_http_channel.erl
end note

channels ->o api - - : Decoded
note right: ./src/channels/router_console_channel.erl

...

@enduml

PlantUML version 1.2021.13(Mon Nov 01 05:38:45 MDT 2021)
(GPL source distribution)
Java Runtime: OpenJDK Runtime Environment
JVM: OpenJDK 64-Bit Server VM
Default Encoding: UTF-8
Language: en
Country: US
--></g></svg>